<?xml version="1.0" standalone="no"?>
<!DOCTYPE svg PUBLIC "-//W3C//DTD SVG 20010904//EN"
 "http://www.w3.org/TR/2001/REC-SVG-20010904/DTD/svg10.dtd">
<svg version="1.0" xmlns="http://www.w3.org/2000/svg"
 width="400.000000pt" height="204.000000pt" viewBox="0 0 400.000000 204.000000"
 preserveAspectRatio="xMidYMid meet">
<metadata>
Created by potrace 1.16, written by Peter Selinger 2001-2019
</metadata>
<g transform="translate(0.000000,204.000000) scale(0.100000,-0.100000)"
fill="#000000" stroke="none">
<path d="M1462 1860 c-300 -227 -467 -475 -449 -671 10 -112 69 -204 182 -285
63 -44 172 -100 181 -92 2 3 -3 34 -12 69 -29 113 -7 240 65 382 98 190 292
386 559 564 70 47 129 87 131 89 2 2 -126 4 -286 4 l-291 0 -80 -60z"/>
<path d="M2490 1897 c-326 -196 -621 -458 -738 -653 -29 -49 -64 -126 -79
-171 -22 -72 -25 -96 -21 -180 3 -62 11 -114 22 -141 l18 -42 507 0 506 0 -50
24 c-109 51 -155 119 -155 232 0 176 106 378 309 587 92 95 253 235 330 287
20 14 52 37 71 52 l35 28 -360 -1 c-348 -1 -361 -1 -395 -22z"/>
<path d="M2080 325 l0 -215 60 0 60 0 0 215 0 215 -60 0 -60 0 0 -215z"/>
<path d="M2270 325 l0 -215 60 0 60 0 0 215 0 215 -60 0 -60 0 0 -215z"/>
<path d="M1468 483 l-58 -4 0 -184 0 -185 60 0 60 0 0 140 0 140 74 0 c112 0
106 9 106 -146 l0 -134 60 0 60 0 0 134 c0 155 -9 187 -58 218 -30 18 -51 22
-141 24 -58 1 -132 0 -163 -3z"/>
<path d="M2555 481 c-43 -11 -80 -37 -93 -67 -17 -36 -15 -197 3 -240 21 -52
60 -64 203 -64 66 0 134 3 151 6 29 6 31 9 31 51 l0 44 -104 -7 c-127 -8 -176
-1 -176 26 0 19 8 20 140 20 l140 0 0 45 0 45 -140 0 c-133 0 -140 1 -140 20
0 28 34 34 166 27 l114 -5 0 44 c0 37 -3 44 -22 48 -45 10 -244 14 -273 7z"/>
<path d="M3039 481 c-99 -14 -131 -57 -132 -179 -1 -97 11 -133 56 -166 26
-19 42 -21 165 -21 75 0 154 4 175 8 l37 8 0 164 c0 163 0 165 -22 170 -28 6
-214 26 -225 24 -4 -1 -29 -5 -54 -8z m189 -183 c3 -87 3 -87 -23 -94 -14 -3
-52 -4 -85 -2 -80 6 -100 24 -100 93 0 78 25 95 135 92 l70 -2 3 -87z"/>
<path d="M253 471 c-82 -21 -113 -70 -113 -175 0 -162 63 -202 290 -186 58 5
106 9 108 9 4 2 2 88 -2 92 -3 3 -45 1 -93 -4 -153 -16 -196 10 -183 108 8 59
31 67 166 62 l110 -5 3 43 c1 30 -3 44 -13 48 -27 11 -240 17 -273 8z"/>
<path d="M664 469 c-16 -5 -41 -20 -55 -35 -22 -23 -24 -36 -27 -129 -6 -165
21 -194 187 -202 128 -6 187 10 219 57 22 32 23 43 20 142 -3 100 -5 109 -29
133 -14 15 -43 30 -65 35 -49 12 -209 11 -250 -1z m224 -101 c7 -7 12 -40 12
-80 0 -64 -2 -69 -26 -78 -34 -13 -140 -13 -165 0 -16 9 -19 22 -19 78 0 40 5
73 12 80 7 7 43 12 93 12 50 0 86 -5 93 -12z"/>
<path d="M1135 470 c-11 -4 -31 -20 -45 -35 -24 -25 -25 -33 -28 -176 l-3
-150 58 3 58 3 5 130 5 130 98 3 97 3 0 49 0 50 -112 -1 c-62 0 -122 -4 -133
-9z"/>
<path d="M3390 338 c0 -148 7 -170 59 -205 30 -20 47 -23 130 -23 53 0 126 3
164 7 l67 6 0 173 0 174 -60 0 -60 0 0 -130 0 -131 -87 3 -88 3 -3 128 -3 127
-59 0 -60 0 0 -132z"/>
<path d="M1900 255 l0 -145 60 0 60 0 0 145 0 145 -60 0 -60 0 0 -145z"/>
</g>
</svg>
